<svg xmlns="http://www.w3.org/2000/svg" version="1.1" baseProfile="full" width="2500" height="1100" style="user-select: none; position: absolute; left: 0px; top: 0px;"><path d="M 1680.8762 639.1385 Q 1289.5509 567.096 1610.1406 802.782" fill="none" stroke="#c23531" stroke-width="0.9090908893868948" paint-order="fill" stroke-opacity="0.5" stroke-dasharray="" stroke-linecap="butt" stroke-linejoin="miter" stroke-miterlimit="10" clip-path="none" transform="matrix(1.100000023841858,0,0,1.100000023841858,-508.260986328125,-73.39600372314453)"></path><path d="M 1680.8762 639.1385 Q 1283.0579 573.2032 1480.2819 924.927" fill="none" stroke="#c23531" stroke-width="0.9090908893868948" paint-order="fill" stroke-opacity="0.5" stroke-dasharray="" stroke-linecap="butt" stroke-linejoin="miter" stroke-miterlimit="10" clip-path="none" transform="matrix(1.100000023841858,0,0,1.100000023841858,-508.260986328125,-73.39600372314453)"></path><path d="M 1680.8762 639.1385 Q 1274.6747 576.233 1312.6185 985.5214" fill="none" stroke="#c23531" stroke-width="0.9090908893868948" paint-order="fill" stroke-opacity="0.5" stroke-dasharray="" stroke-linecap="butt" stroke-linejoin="miter" stroke-miterlimit="10" clip-path="none" transform="matrix(1.100000023841858,0,0,1.100000023841858,-508.260986328125,-73.39600372314453)"></path><path d="M 1680.8762 639.1385 Q 1265.7776 575.6878 1134.6753 974.6177" fill="none" stroke="#c23531" stroke-width="0.9090908893868948" paint-order="fill" stroke-opacity="0.5" stroke-dasharray="" stroke-linecap="butt" stroke-linejoin="miter" stroke-miterlimit="10" clip-path="none" transform="matrix(1.100000023841858,0,0,1.100000023841858,-508.260986328125,-73.39600372314453)"></path><path d="M 1680.8762 639.1385 Q 1252.1283 564.8029 861.6905 756.9196" fill="none" stroke="#c23531" stroke-width="0.9090908893868948" paint-order="fill" stroke-opacity="0.5" stroke-dasharray="" stroke-linecap="butt" stroke-linejoin="miter" stroke-miterlimit="10" clip-path="none" transform="matrix(1.100000023841858,0,0,1.100000023841858,-508.260986328125,-73.39600372314453)"></path><path d="M 1680.8762 639.1385 Q 1249.6171 556.2501 811.4641 585.8641" fill="none" stroke="#c23531" stroke-width="0.9090908893868948" paint-order="fill" stroke-opacity="0.5" stroke-dasharray="" stroke-linecap="butt" stroke-linejoin="miter" stroke-miterlimit="10" clip-path="none" transform="matrix(1.100000023841858,0,0,1.100000023841858,-508.260986328125,-73.39600372314453)"></path><path d="M 1680.8762 639.1385 Q 1253.5367 541.8178 889.8594 297.218" fill="none" stroke="#c23531" stroke-width="0.9090908893868948" paint-order="fill" stroke-opacity="0.5" stroke-dasharray="" stroke-linecap="butt" stroke-linejoin="miter" stroke-miterlimit="10" clip-path="none" transform="matrix(1.100000023841858,0,0,1.100000023841858,-508.260986328125,-73.39600372314453)"></path><path d="M 1680.8762 639.1385 Q 1257.827 537.2567 975.6645 205.9941" fill="none" stroke="#c23531" stroke-width="0.9090908893868948" paint-order="fill" stroke-opacity="0.5" stroke-dasharray="" stroke-linecap="butt" stroke-linejoin="miter" stroke-miterlimit="10" clip-path="none" transform="matrix(1.100000023841858,0,0,1.100000023841858,-508.260986328125,-73.39600372314453)"></path><path d="M 1610.1406 802.782 Q 1279.5211 581.3854 1480.2819 924.927" fill="none" stroke="#c23531" stroke-width="0.9090908893868948" paint-order="fill" stroke-opacity="0.5" stroke-dasharray="" stroke-linecap="butt" stroke-linejoin="miter" stroke-miterlimit="10" clip-path="none" transform="matrix(1.100000023841858,0,0,1.100000023841858,-508.260986328125,-73.39600372314453)"></path><path d="M 1610.1406 802.782 Q 1254.2903 579.8394 975.6645 894.0059" fill="none" stroke="#c23531" stroke-width="0.9090908893868948" paint-order="fill" stroke-opacity="0.5" stroke-dasharray="" stroke-linecap="butt" stroke-linejoin="miter" stroke-miterlimit="10" clip-path="none" transform="matrix(1.100000023841858,0,0,1.100000023841858,-508.260986328125,-73.39600372314453)"></path><path d="M 1480.2819 924.927 Q 1264.645 590.5224 1312.6185 985.5214" fill="none" stroke="#c23531" stroke-width="0.9090908893868948" paint-order="fill" stroke-opacity="0.5" stroke-dasharray="" stroke-linecap="butt" stroke-linejoin="miter" stroke-miterlimit="10" clip-path="none" transform="matrix(1.100000023841858,0,0,1.100000023841858,-508.260986328125,-73.39600372314453)"></path><path d="M 1480.2819 924.927 Q 1255.7478 589.9772 1134.6753 974.6177" fill="none" stroke="#c23531" stroke-width="0.9090908893868948" paint-order="fill" stroke-opacity="0.5" stroke-dasharray="" stroke-linecap="butt" stroke-linejoin="miter" stroke-miterlimit="10" clip-path="none" transform="matrix(1.100000023841858,0,0,1.100000023841858,-508.260986328125,-73.39600372314453)"></path><path d="M 1480.2819 924.927 Q 1247.7974 585.9467 975.6645 894.0059" fill="none" stroke="#c23531" stroke-width="0.9090908893868948" paint-order="fill" stroke-opacity="0.5" stroke-dasharray="" stroke-linecap="butt" stroke-linejoin="miter" stroke-miterlimit="10" clip-path="none" transform="matrix(1.100000023841858,0,0,1.100000023841858,-508.260986328125,-73.39600372314453)"></path><path d="M 1480.2819 924.927 Q 1242.0986 579.0923 861.6905 756.9196" fill="none" stroke="#c23531" stroke-width="0.9090908893868948" paint-order="fill" stroke-opacity="0.5" stroke-dasharray="" stroke-linecap="butt" stroke-linejoin="miter" stroke-miterlimit="10" clip-path="none" transform="matrix(1.100000023841858,0,0,1.100000023841858,-508.260986328125,-73.39600372314453)"></path><path d="M 1480.2819 924.927 Q 1243.5071 556.1072 889.8594 297.218" fill="none" stroke="#c23531" stroke-width="0.9090908893868948" paint-order="fill" stroke-opacity="0.5" stroke-dasharray="" stroke-linecap="butt" stroke-linejoin="miter" stroke-miterlimit="10" clip-path="none" transform="matrix(1.100000023841858,0,0,1.100000023841858,-508.260986328125,-73.39600372314453)"></path><path d="M 1480.2819 924.927 Q 1255.7478 547.5154 1134.6753 125.3823" fill="none" stroke="#c23531" stroke-width="0.9090908893868948" paint-order="fill" stroke-opacity="0.5" stroke-dasharray="" stroke-linecap="butt" stroke-linejoin="miter" stroke-miterlimit="10" clip-path="none" transform="matrix(1.100000023841858,0,0,1.100000023841858,-508.260986328125,-73.39600372314453)"></path><path d="M 1312.6185 985.5214 Q 1232.2925 564.7221 833.2307 408.9208" fill="none" stroke="#d48265" stroke-width="0.9090908893868948" paint-order="fill" stroke-opacity="0.5" stroke-dasharray="" stroke-linecap="butt" stroke-linejoin="miter" stroke-miterlimit="10" clip-path="none" transform="matrix(1.100000023841858,0,0,1.100000023841858,-508.260986328125,-73.39600372314453)"></path><path d="M 1312.6185 985.5214 Q 1247.3647 593.007 1134.6753 974.6177" fill="none" stroke="#d48265" stroke-width="0.9090908893868948" paint-order="fill" stroke-opacity="0.5" stroke-dasharray="" stroke-linecap="butt" stroke-linejoin="miter" stroke-miterlimit="10" clip-path="none" transform="matrix(1.100000023841858,0,0,1.100000023841858,-508.260986328125,-73.39600372314453)"></path><path d="M 1312.6185 985.5214 Q 1239.4142 588.9764 975.6645 894.0059" fill="none" stroke="#d48265" stroke-width="0.9090908893868948" paint-order="fill" stroke-opacity="0.5" stroke-dasharray="" stroke-linecap="butt" stroke-linejoin="miter" stroke-miterlimit="10" clip-path="none" transform="matrix(1.100000023841858,0,0,1.100000023841858,-508.260986328125,-73.39600372314453)"></path><path d="M 1134.6753 974.6177 Q 1265.7776 575.6878 1680.8762 639.1385" fill="none" stroke="#d48265" stroke-width="0.9090908893868948" paint-order="fill" stroke-opacity="0.5" stroke-dasharray="" stroke-linecap="butt" stroke-linejoin="miter" stroke-miterlimit="10" clip-path="none" transform="matrix(1.100000023841858,0,0,1.100000023841858,-508.260986328125,-73.39600372314453)"></path><path d="M 1134.6753 974.6177 Q 1262.2408 583.87 1610.1406 802.782" fill="none" stroke="#d48265" stroke-width="0.9090908893868948" paint-order="fill" stroke-opacity="0.5" stroke-dasharray="" stroke-linecap="butt" stroke-linejoin="miter" stroke-miterlimit="10" clip-path="none" transform="matrix(1.100000023841858,0,0,1.100000023841858,-508.260986328125,-73.39600372314453)"></path><path d="M 1134.6753 974.6177 Q 1255.7478 589.9772 1480.2819 924.927" fill="none" stroke="#d48265" stroke-width="0.9090908893868948" paint-order="fill" stroke-opacity="0.5" stroke-dasharray="" stroke-linecap="butt" stroke-linejoin="miter" stroke-miterlimit="10" clip-path="none" transform="matrix(1.100000023841858,0,0,1.100000023841858,-508.260986328125,-73.39600372314453)"></path><path d="M 1134.6753 974.6177 Q 1247.3647 593.007 1312.6185 985.5214" fill="none" stroke="#d48265" stroke-width="0.9090908893868948" paint-order="fill" stroke-opacity="0.5" stroke-dasharray="" stroke-linecap="butt" stroke-linejoin="miter" stroke-miterlimit="10" clip-path="none" transform="matrix(1.100000023841858,0,0,1.100000023841858,-508.260986328125,-73.39600372314453)"></path><path d="M 1134.6753 974.6177 Q 1230.517 588.4312 975.6645 894.0059" fill="none" stroke="#d48265" stroke-width="0.9090908893868948" paint-order="fill" stroke-opacity="0.5" stroke-dasharray="" stroke-linecap="butt" stroke-linejoin="miter" stroke-miterlimit="10" clip-path="none" transform="matrix(1.100000023841858,0,0,1.100000023841858,-508.260986328125,-73.39600372314453)"></path><path d="M 1134.6753 974.6177 Q 1224.8182 581.5768 861.6905 756.9196" fill="none" stroke="#d48265" stroke-width="0.9090908893868948" paint-order="fill" stroke-opacity="0.5" stroke-dasharray="" stroke-linecap="butt" stroke-linejoin="miter" stroke-miterlimit="10" clip-path="none" transform="matrix(1.100000023841858,0,0,1.100000023841858,-508.260986328125,-73.39600372314453)"></path><path d="M 1134.6753 974.6177 Q 1223.3953 564.1769 833.2307 408.9208" fill="none" stroke="#d48265" stroke-width="0.9090908893868948" paint-order="fill" stroke-opacity="0.5" stroke-dasharray="" stroke-linecap="butt" stroke-linejoin="miter" stroke-miterlimit="10" clip-path="none" transform="matrix(1.100000023841858,0,0,1.100000023841858,-508.260986328125,-73.39600372314453)"></path><path d="M 1134.6753 974.6177 Q 1262.2408 558.5918 1610.1406 297.218" fill="none" stroke="#d48265" stroke-width="0.9090908893868948" paint-order="fill" stroke-opacity="0.5" stroke-dasharray="" stroke-linecap="butt" stroke-linejoin="miter" stroke-miterlimit="10" clip-path="none" transform="matrix(1.100000023841858,0,0,1.100000023841858,-508.260986328125,-73.39600372314453)"></path><path d="M 975.6645 894.0059 Q 1257.827 571.6572 1680.8762 639.1385" fill="none" stroke="#2f4554" stroke-width="0.9090908893868948" paint-order="fill" stroke-opacity="0.5" stroke-dasharray="" stroke-linecap="butt" stroke-linejoin="miter" stroke-miterlimit="10" clip-path="none" transform="matrix(1.100000023841858,0,0,1.100000023841858,-508.260986328125,-73.39600372314453)"></path><path d="M 975.6645 894.0059 Q 1254.2903 579.8394 1610.1406 802.782" fill="none" stroke="#2f4554" stroke-width="0.9090908893868948" paint-order="fill" stroke-opacity="0.5" stroke-dasharray="" stroke-linecap="butt" stroke-linejoin="miter" stroke-miterlimit="10" clip-path="none" transform="matrix(1.100000023841858,0,0,1.100000023841858,-508.260986328125,-73.39600372314453)"></path><path d="M 975.6645 894.0059 Q 1247.7974 585.9467 1480.2819 924.927" fill="none" stroke="#2f4554" stroke-width="0.9090908893868948" paint-order="fill" stroke-opacity="0.5" stroke-dasharray="" stroke-linecap="butt" stroke-linejoin="miter" stroke-miterlimit="10" clip-path="none" transform="matrix(1.100000023841858,0,0,1.100000023841858,-508.260986328125,-73.39600372314453)"></path><path d="M 975.6645 894.0059 Q 1239.4142 588.9764 1312.6185 985.5214" fill="none" stroke="#2f4554" stroke-width="0.9090908893868948" paint-order="fill" stroke-opacity="0.5" stroke-dasharray="" stroke-linecap="butt" stroke-linejoin="miter" stroke-miterlimit="10" clip-path="none" transform="matrix(1.100000023841858,0,0,1.100000023841858,-508.260986328125,-73.39600372314453)"></path><path d="M 975.6645 894.0059 Q 1230.517 588.4312 1134.6753 974.6177" fill="none" stroke="#2f4554" stroke-width="0.9090908893868948" paint-order="fill" stroke-opacity="0.5" stroke-dasharray="" stroke-linecap="butt" stroke-linejoin="miter" stroke-miterlimit="10" clip-path="none" transform="matrix(1.100000023841858,0,0,1.100000023841858,-508.260986328125,-73.39600372314453)"></path><path d="M 975.6645 894.0059 Q 1230.517 545.9694 1134.6753 125.3823" fill="none" stroke="#2f4554" stroke-width="0.9090908893868948" paint-order="fill" stroke-opacity="0.5" stroke-dasharray="" stroke-linecap="butt" stroke-linejoin="miter" stroke-miterlimit="10" clip-path="none" transform="matrix(1.100000023841858,0,0,1.100000023841858,-508.260986328125,-73.39600372314453)"></path><path d="M 975.6645 894.0059 Q 1247.7974 548.4539 1480.2819 175.073" fill="none" stroke="#2f4554" stroke-width="0.9090908893868948" paint-order="fill" stroke-opacity="0.5" stroke-dasharray="" stroke-linecap="butt" stroke-linejoin="miter" stroke-miterlimit="10" clip-path="none" transform="matrix(1.100000023841858,0,0,1.100000023841858,-508.260986328125,-73.39600372314453)"></path><path d="M 861.6905 756.9196 Q 1252.1283 564.8029 1680.8762 639.1385" fill="none" stroke="#61a0a8" stroke-width="0.9090908893868948" paint-order="fill" stroke-opacity="0.5" stroke-dasharray="" stroke-linecap="butt" stroke-linejoin="miter" stroke-miterlimit="10" clip-path="none" transform="matrix(1.100000023841858,0,0,1.100000023841858,-508.260986328125,-73.39600372314453)"></path><path d="M 861.6905 756.9196 Q 1248.5916 572.9851 1610.1406 802.782" fill="none" stroke="#61a0a8" stroke-width="0.9090908893868948" paint-order="fill" stroke-opacity="0.5" stroke-dasharray="" stroke-linecap="butt" stroke-linejoin="miter" stroke-miterlimit="10" clip-path="none" transform="matrix(1.100000023841858,0,0,1.100000023841858,-508.260986328125,-73.39600372314453)"></path><path d="M 861.6905 756.9196 Q 1242.0986 579.0923 1480.2819 924.927" fill="none" stroke="#61a0a8" stroke-width="0.9090908893868948" paint-order="fill" stroke-opacity="0.5" stroke-dasharray="" stroke-linecap="butt" stroke-linejoin="miter" stroke-miterlimit="10" clip-path="none" transform="matrix(1.100000023841858,0,0,1.100000023841858,-508.260986328125,-73.39600372314453)"></path><path d="M 861.6905 756.9196 Q 1233.7155 582.1221 1312.6185 985.5214" fill="none" stroke="#61a0a8" stroke-width="0.9090908893868948" paint-order="fill" stroke-opacity="0.5" stroke-dasharray="" stroke-linecap="butt" stroke-linejoin="miter" stroke-miterlimit="10" clip-path="none" transform="matrix(1.100000023841858,0,0,1.100000023841858,-508.260986328125,-73.39600372314453)"></path><path d="M 861.6905 756.9196 Q 1224.8182 581.5768 1134.6753 974.6177" fill="none" stroke="#61a0a8" stroke-width="0.9090908893868948" paint-order="fill" stroke-opacity="0.5" stroke-dasharray="" stroke-linecap="butt" stroke-linejoin="miter" stroke-miterlimit="10" clip-path="none" transform="matrix(1.100000023841858,0,0,1.100000023841858,-508.260986328125,-73.39600372314453)"></path><path d="M 861.6905 756.9196 Q 1216.8678 577.5463 975.6645 894.0059" fill="none" stroke="#61a0a8" stroke-width="0.9090908893868948" paint-order="fill" stroke-opacity="0.5" stroke-dasharray="" stroke-linecap="butt" stroke-linejoin="miter" stroke-miterlimit="10" clip-path="none" transform="matrix(1.100000023841858,0,0,1.100000023841858,-508.260986328125,-73.39600372314453)"></path><path d="M 861.6905 756.9196 Q 1208.6577 562.1392 811.4641 585.8641" fill="none" stroke="#61a0a8" stroke-width="0.9090908893868948" paint-order="fill" stroke-opacity="0.5" stroke-dasharray="" stroke-linecap="butt" stroke-linejoin="miter" stroke-miterlimit="10" clip-path="none" transform="matrix(1.100000023841858,0,0,1.100000023841858,-508.260986328125,-73.39600372314453)"></path><path d="M 811.4641 585.8641 Q 1222.307 530.5623 1134.6753 125.3823" fill="none" stroke="#61a0a8" stroke-width="0.9090908893868948" paint-order="fill" stroke-opacity="0.5" stroke-dasharray="" stroke-linecap="butt" stroke-linejoin="miter" stroke-miterlimit="10" clip-path="none" transform="matrix(1.100000023841858,0,0,1.100000023841858,-508.260986328125,-73.39600372314453)"></path><path d="M 811.4641 585.8641 Q 1249.6171 556.2501 1680.8762 639.1385" fill="none" stroke="#61a0a8" stroke-width="0.9090908893868948" paint-order="fill" stroke-opacity="0.5" stroke-dasharray="" stroke-linecap="butt" stroke-linejoin="miter" stroke-miterlimit="10" clip-path="none" transform="matrix(1.100000023841858,0,0,1.100000023841858,-508.260986328125,-73.39600372314453)"></path><path d="M 811.4641 585.8641 Q 1208.6577 562.1392 861.6905 756.9196" fill="none" stroke="#61a0a8" stroke-width="0.9090908893868948" paint-order="fill" stroke-opacity="0.5" stroke-dasharray="" stroke-linecap="butt" stroke-linejoin="miter" stroke-miterlimit="10" clip-path="none" transform="matrix(1.100000023841858,0,0,1.100000023841858,-508.260986328125,-73.39600372314453)"></path><path d="M 811.4641 585.8641 Q 1210.0662 539.1541 889.8594 297.218" fill="none" stroke="#61a0a8" stroke-width="0.9090908893868948" paint-order="fill" stroke-opacity="0.5" stroke-dasharray="" stroke-linecap="butt" stroke-linejoin="miter" stroke-miterlimit="10" clip-path="none" transform="matrix(1.100000023841858,0,0,1.100000023841858,-508.260986328125,-73.39600372314453)"></path><path d="M 811.4641 585.8641 Q 1214.3564 534.5929 975.6645 205.9941" fill="none" stroke="#61a0a8" stroke-width="0.9090908893868948" paint-order="fill" stroke-opacity="0.5" stroke-dasharray="" stroke-linecap="butt" stroke-linejoin="miter" stroke-miterlimit="10" clip-path="none" transform="matrix(1.100000023841858,0,0,1.100000023841858,-508.260986328125,-73.39600372314453)"></path><path d="M 833.2307 408.9208 Q 1247.1686 555.5851 1610.1406 802.782" fill="none" stroke="#d48265" stroke-width="0.9090908893868948" paint-order="fill" stroke-opacity="0.5" stroke-dasharray="" stroke-linecap="butt" stroke-linejoin="miter" stroke-miterlimit="10" clip-path="none" transform="matrix(1.100000023841858,0,0,1.100000023841858,-508.260986328125,-73.39600372314453)"></path><path d="M 833.2307 408.9208 Q 1232.2925 564.7221 1312.6185 985.5214" fill="none" stroke="#d48265" stroke-width="0.9090908893868948" paint-order="fill" stroke-opacity="0.5" stroke-dasharray="" stroke-linecap="butt" stroke-linejoin="miter" stroke-miterlimit="10" clip-path="none" transform="matrix(1.100000023841858,0,0,1.100000023841858,-508.260986328125,-73.39600372314453)"></path><path d="M 833.2307 408.9208 Q 1209.7461 553.292 861.6905 756.9196" fill="none" stroke="#d48265" stroke-width="0.9090908893868948" paint-order="fill" stroke-opacity="0.5" stroke-dasharray="" stroke-linecap="butt" stroke-linejoin="miter" stroke-miterlimit="10" clip-path="none" transform="matrix(1.100000023841858,0,0,1.100000023841858,-508.260986328125,-73.39600372314453)"></path><path d="M 833.2307 408.9208 Q 1247.1686 530.3069 1610.1406 297.218" fill="none" stroke="#d48265" stroke-width="0.9090908893868948" paint-order="fill" stroke-opacity="0.5" stroke-dasharray="" stroke-linecap="butt" stroke-linejoin="miter" stroke-miterlimit="10" clip-path="none" transform="matrix(1.100000023841858,0,0,1.100000023841858,-508.260986328125,-73.39600372314453)"></path><path d="M 889.8594 297.218 Q 1253.5367 541.8178 1680.8762 639.1385" fill="none" stroke="#91c7ae" stroke-width="0.9090908893868948" paint-order="fill" stroke-opacity="0.5" stroke-dasharray="" stroke-linecap="butt" stroke-linejoin="miter" stroke-miterlimit="10" clip-path="none" transform="matrix(1.100000023841858,0,0,1.100000023841858,-508.260986328125,-73.39600372314453)"></path><path d="M 889.8594 297.218 Q 1243.5071 556.1072 1480.2819 924.927" fill="none" stroke="#91c7ae" stroke-width="0.9090908893868948" paint-order="fill" stroke-opacity="0.5" stroke-dasharray="" stroke-linecap="butt" stroke-linejoin="miter" stroke-miterlimit="10" clip-path="none" transform="matrix(1.100000023841858,0,0,1.100000023841858,-508.260986328125,-73.39600372314453)"></path><path d="M 889.8594 297.218 Q 1226.2267 516.13 1134.6753 125.3823" fill="none" stroke="#91c7ae" stroke-width="0.9090908893868948" paint-order="fill" stroke-opacity="0.5" stroke-dasharray="" stroke-linecap="butt" stroke-linejoin="miter" stroke-miterlimit="10" clip-path="none" transform="matrix(1.100000023841858,0,0,1.100000023841858,-508.260986328125,-73.39600372314453)"></path><path d="M 889.8594 297.218 Q 1250 524.7218 1610.1406 297.218" fill="none" stroke="#91c7ae" stroke-width="0.9090908893868948" paint-order="fill" stroke-opacity="0.5" stroke-dasharray="" stroke-linecap="butt" stroke-linejoin="miter" stroke-miterlimit="10" clip-path="none" transform="matrix(1.100000023841858,0,0,1.100000023841858,-508.260986328125,-73.39600372314453)"></path><path d="M 889.8594 297.218 Q 1253.5367 532.904 1680.8762 460.8615" fill="none" stroke="#91c7ae" stroke-width="0.9090908893868948" paint-order="fill" stroke-opacity="0.5" stroke-dasharray="" stroke-linecap="butt" stroke-linejoin="miter" stroke-miterlimit="10" clip-path="none" transform="matrix(1.100000023841858,0,0,1.100000023841858,-508.260986328125,-73.39600372314453)"></path><path d="M 975.6645 205.9941 Q 1247.7974 551.5461 1480.2819 924.927" fill="none" stroke="#61a0a8" stroke-width="0.9090908893868948" paint-order="fill" stroke-opacity="0.5" stroke-dasharray="" stroke-linecap="butt" stroke-linejoin="miter" stroke-miterlimit="10" clip-path="none" transform="matrix(1.100000023841858,0,0,1.100000023841858,-508.260986328125,-73.39600372314453)"></path><path d="M 975.6645 205.9941 Q 1222.5664 550 975.6645 894.0059" fill="none" stroke="#61a0a8" stroke-width="0.9090908893868948" paint-order="fill" stroke-opacity="0.5" stroke-dasharray="" stroke-linecap="butt" stroke-linejoin="miter" stroke-miterlimit="10" clip-path="none" transform="matrix(1.100000023841858,0,0,1.100000023841858,-508.260986328125,-73.39600372314453)"></path><path d="M 975.6645 205.9941 Q 1216.8678 543.1457 861.6905 756.9196" fill="none" stroke="#61a0a8" stroke-width="0.9090908893868948" paint-order="fill" stroke-opacity="0.5" stroke-dasharray="" stroke-linecap="butt" stroke-linejoin="miter" stroke-miterlimit="10" clip-path="none" transform="matrix(1.100000023841858,0,0,1.100000023841858,-508.260986328125,-73.39600372314453)"></path><path d="M 975.6645 205.9941 Q 1214.3564 534.5929 811.4641 585.8641" fill="none" stroke="#61a0a8" stroke-width="0.9090908893868948" paint-order="fill" stroke-opacity="0.5" stroke-dasharray="" stroke-linecap="butt" stroke-linejoin="miter" stroke-miterlimit="10" clip-path="none" transform="matrix(1.100000023841858,0,0,1.100000023841858,-508.260986328125,-73.39600372314453)"></path><path d="M 975.6645 205.9941 Q 1218.2762 520.1606 889.8594 297.218" fill="none" stroke="#61a0a8" stroke-width="0.9090908893868948" paint-order="fill" stroke-opacity="0.5" stroke-dasharray="" stroke-linecap="butt" stroke-linejoin="miter" stroke-miterlimit="10" clip-path="none" transform="matrix(1.100000023841858,0,0,1.100000023841858,-508.260986328125,-73.39600372314453)"></path><path d="M 1134.6753 125.3823 Q 1247.3647 506.993 1312.6185 114.4786" fill="none" stroke="#2f4554" stroke-width="0.9090908893868948" paint-order="fill" stroke-opacity="0.5" stroke-dasharray="" stroke-linecap="butt" stroke-linejoin="miter" stroke-miterlimit="10" clip-path="none" transform="matrix(1.100000023841858,0,0,1.100000023841858,-508.260986328125,-73.39600372314453)"></path><path d="M 1134.6753 125.3823 Q 1255.7478 510.0228 1480.2819 175.073" fill="none" stroke="#2f4554" stroke-width="0.9090908893868948" paint-order="fill" stroke-opacity="0.5" stroke-dasharray="" stroke-linecap="butt" stroke-linejoin="miter" stroke-miterlimit="10" clip-path="none" transform="matrix(1.100000023841858,0,0,1.100000023841858,-508.260986328125,-73.39600372314453)"></path><path d="M 1134.6753 125.3823 Q 1265.7776 533.226 1680.8762 639.1385" fill="none" stroke="#2f4554" stroke-width="0.9090908893868948" paint-order="fill" stroke-opacity="0.5" stroke-dasharray="" stroke-linecap="butt" stroke-linejoin="miter" stroke-miterlimit="10" clip-path="none" transform="matrix(1.100000023841858,0,0,1.100000023841858,-508.260986328125,-73.39600372314453)"></path><path d="M 1134.6753 125.3823 Q 1226.2267 516.13 889.8594 297.218" fill="none" stroke="#2f4554" stroke-width="0.9090908893868948" paint-order="fill" stroke-opacity="0.5" stroke-dasharray="" stroke-linecap="butt" stroke-linejoin="miter" stroke-miterlimit="10" clip-path="none" transform="matrix(1.100000023841858,0,0,1.100000023841858,-508.260986328125,-73.39600372314453)"></path><path d="M 1480.2819 175.073 Q 1264.645 509.4776 1312.6185 114.4786" fill="none" stroke="#2f4554" stroke-width="0.9090908893868948" paint-order="fill" stroke-opacity="0.5" stroke-dasharray="" stroke-linecap="butt" stroke-linejoin="miter" stroke-miterlimit="10" clip-path="none" transform="matrix(1.100000023841858,0,0,1.100000023841858,-508.260986328125,-73.39600372314453)"></path><path d="M 1480.2819 175.073 Q 1247.7974 548.4539 975.6645 894.0059" fill="none" stroke="#2f4554" stroke-width="0.9090908893868948" paint-order="fill" stroke-opacity="0.5" stroke-dasharray="" stroke-linecap="butt" stroke-linejoin="miter" stroke-miterlimit="10" clip-path="none" transform="matrix(1.100000023841858,0,0,1.100000023841858,-508.260986328125,-73.39600372314453)"></path><path d="M 1480.2819 175.073 Q 1255.7478 510.0228 1134.6753 125.3823" fill="none" stroke="#2f4554" stroke-width="0.9090908893868948" paint-order="fill" stroke-opacity="0.5" stroke-dasharray="" stroke-linecap="butt" stroke-linejoin="miter" stroke-miterlimit="10" clip-path="none" transform="matrix(1.100000023841858,0,0,1.100000023841858,-508.260986328125,-73.39600372314453)"></path><path d="M 1480.2819 175.073 Q 1239.5873 533.0469 811.4641 585.8641" fill="none" stroke="#2f4554" stroke-width="0.9090908893868948" paint-order="fill" stroke-opacity="0.5" stroke-dasharray="" stroke-linecap="butt" stroke-linejoin="miter" stroke-miterlimit="10" clip-path="none" transform="matrix(1.100000023841858,0,0,1.100000023841858,-508.260986328125,-73.39600372314453)"></path><path d="M 1480.2819 175.073 Q 1243.5071 518.6146 889.8594 297.218" fill="none" stroke="#2f4554" stroke-width="0.9090908893868948" paint-order="fill" stroke-opacity="0.5" stroke-dasharray="" stroke-linecap="butt" stroke-linejoin="miter" stroke-miterlimit="10" clip-path="none" transform="matrix(1.100000023841858,0,0,1.100000023841858,-508.260986328125,-73.39600372314453)"></path><path d="M 1480.2819 175.073 Q 1247.7974 514.0533 975.6645 205.9941" fill="none" stroke="#2f4554" stroke-width="0.9090908893868948" paint-order="fill" stroke-opacity="0.5" stroke-dasharray="" stroke-linecap="butt" stroke-linejoin="miter" stroke-miterlimit="10" clip-path="none" transform="matrix(1.100000023841858,0,0,1.100000023841858,-508.260986328125,-73.39600372314453)"></path><path d="M 1312.6185 114.4786 Q 1247.3647 506.993 1134.6753 125.3823" fill="none" stroke="#61a0a8" stroke-width="0.9090908893868948" paint-order="fill" stroke-opacity="0.5" stroke-dasharray="" stroke-linecap="butt" stroke-linejoin="miter" stroke-miterlimit="10" clip-path="none" transform="matrix(1.100000023841858,0,0,1.100000023841858,-508.260986328125,-73.39600372314453)"></path><path d="M 1312.6185 114.4786 Q 1271.1379 540.863 1610.1406 802.782" fill="none" stroke="#61a0a8" stroke-width="0.9090908893868948" paint-order="fill" stroke-opacity="0.5" stroke-dasharray="" stroke-linecap="butt" stroke-linejoin="miter" stroke-miterlimit="10" clip-path="none" transform="matrix(1.100000023841858,0,0,1.100000023841858,-508.260986328125,-73.39600372314453)"></path><path d="M 1312.6185 114.4786 Q 1264.645 546.9703 1480.2819 924.927" fill="none" stroke="#61a0a8" stroke-width="0.9090908893868948" paint-order="fill" stroke-opacity="0.5" stroke-dasharray="" stroke-linecap="butt" stroke-linejoin="miter" stroke-miterlimit="10" clip-path="none" transform="matrix(1.100000023841858,0,0,1.100000023841858,-508.260986328125,-73.39600372314453)"></path><path d="M 1312.6185 114.4786 Q 1239.4142 545.4242 975.6645 894.0059" fill="none" stroke="#61a0a8" stroke-width="0.9090908893868948" paint-order="fill" stroke-opacity="0.5" stroke-dasharray="" stroke-linecap="butt" stroke-linejoin="miter" stroke-miterlimit="10" clip-path="none" transform="matrix(1.100000023841858,0,0,1.100000023841858,-508.260986328125,-73.39600372314453)"></path><path d="M 1312.6185 114.4786 Q 1231.2041 530.0172 811.4641 585.8641" fill="none" stroke="#61a0a8" stroke-width="0.9090908893868948" paint-order="fill" stroke-opacity="0.5" stroke-dasharray="" stroke-linecap="butt" stroke-linejoin="miter" stroke-miterlimit="10" clip-path="none" transform="matrix(1.100000023841858,0,0,1.100000023841858,-508.260986328125,-73.39600372314453)"></path><path d="M 1312.6185 114.4786 Q 1235.1239 515.5848 889.8594 297.218" fill="none" stroke="#61a0a8" stroke-width="0.9090908893868948" paint-order="fill" stroke-opacity="0.5" stroke-dasharray="" stroke-linecap="butt" stroke-linejoin="miter" stroke-miterlimit="10" clip-path="none" transform="matrix(1.100000023841858,0,0,1.100000023841858,-508.260986328125,-73.39600372314453)"></path><path d="M 1312.6185 114.4786 Q 1256.2618 550 1312.6185 985.5214" fill="none" stroke="#61a0a8" stroke-width="0.9090908893868948" paint-order="fill" stroke-opacity="0.5" stroke-dasharray="" stroke-linecap="butt" stroke-linejoin="miter" stroke-miterlimit="10" clip-path="none" transform="matrix(1.100000023841858,0,0,1.100000023841858,-508.260986328125,-73.39600372314453)"></path><path d="M 1312.6185 114.4786 Q 1247.3647 549.4548 1134.6753 974.6177" fill="none" stroke="#61a0a8" stroke-width="0.9090908893868948" paint-order="fill" stroke-opacity="0.5" stroke-dasharray="" stroke-linecap="butt" stroke-linejoin="miter" stroke-miterlimit="10" clip-path="none" transform="matrix(1.100000023841858,0,0,1.100000023841858,-508.260986328125,-73.39600372314453)"></path><path d="M 1312.6185 114.4786 Q 1233.7155 538.5699 861.6905 756.9196" fill="none" stroke="#61a0a8" stroke-width="0.9090908893868948" paint-order="fill" stroke-opacity="0.5" stroke-dasharray="" stroke-linecap="butt" stroke-linejoin="miter" stroke-miterlimit="10" clip-path="none" transform="matrix(1.100000023841858,0,0,1.100000023841858,-508.260986328125,-73.39600372314453)"></path><path d="M 1312.6185 114.4786 Q 1232.2925 521.17 833.2307 408.9208" fill="none" stroke="#61a0a8" stroke-width="0.9090908893868948" paint-order="fill" stroke-opacity="0.5" stroke-dasharray="" stroke-linecap="butt" stroke-linejoin="miter" stroke-miterlimit="10" clip-path="none" transform="matrix(1.100000023841858,0,0,1.100000023841858,-508.260986328125,-73.39600372314453)"></path><path d="M 1610.1406 297.218 Q 1289.5509 541.8178 1680.8762 639.1385" fill="none" stroke="#d48265" stroke-width="0.9090908893868948" paint-order="fill" stroke-opacity="0.5" stroke-dasharray="" stroke-linecap="butt" stroke-linejoin="miter" stroke-miterlimit="10" clip-path="none" transform="matrix(1.100000023841858,0,0,1.100000023841858,-508.260986328125,-73.39600372314453)"></path><path d="M 1610.1406 297.218 Q 1286.014 550 1610.1406 802.782" fill="none" stroke="#d48265" stroke-width="0.9090908893868948" paint-order="fill" stroke-opacity="0.5" stroke-dasharray="" stroke-linecap="butt" stroke-linejoin="miter" stroke-miterlimit="10" clip-path="none" transform="matrix(1.100000023841858,0,0,1.100000023841858,-508.260986328125,-73.39600372314453)"></path><path d="M 1610.1406 297.218 Q 1279.5211 556.1072 1480.2819 924.927" fill="none" stroke="#d48265" stroke-width="0.9090908893868948" paint-order="fill" stroke-opacity="0.5" stroke-dasharray="" stroke-linecap="butt" stroke-linejoin="miter" stroke-miterlimit="10" clip-path="none" transform="matrix(1.100000023841858,0,0,1.100000023841858,-508.260986328125,-73.39600372314453)"></path><path d="M 1610.1406 297.218 Q 1262.2408 558.5918 1134.6753 974.6177" fill="none" stroke="#d48265" stroke-width="0.9090908893868948" paint-order="fill" stroke-opacity="0.5" stroke-dasharray="" stroke-linecap="butt" stroke-linejoin="miter" stroke-miterlimit="10" clip-path="none" transform="matrix(1.100000023841858,0,0,1.100000023841858,-508.260986328125,-73.39600372314453)"></path><path d="M 1610.1406 297.218 Q 1247.1686 530.3069 833.2307 408.9208" fill="none" stroke="#d48265" stroke-width="0.9090908893868948" paint-order="fill" stroke-opacity="0.5" stroke-dasharray="" stroke-linecap="butt" stroke-linejoin="miter" stroke-miterlimit="10" clip-path="none" transform="matrix(1.100000023841858,0,0,1.100000023841858,-508.260986328125,-73.39600372314453)"></path><path d="M 1610.1406 297.218 Q 1250 524.7218 889.8594 297.218" fill="none" stroke="#d48265" stroke-width="0.9090908893868948" paint-order="fill" stroke-opacity="0.5" stroke-dasharray="" stroke-linecap="butt" stroke-linejoin="miter" stroke-miterlimit="10" clip-path="none" transform="matrix(1.100000023841858,0,0,1.100000023841858,-508.260986328125,-73.39600372314453)"></path><path d="M 1680.8762 460.8615 Q 1293.0876 550 1680.8762 639.1385" fill="none" stroke="#91c7ae" stroke-width="0.9090908893868948" paint-order="fill" stroke-opacity="0.5" stroke-dasharray="" stroke-linecap="butt" stroke-linejoin="miter" stroke-miterlimit="10" clip-path="none" transform="matrix(1.100000023841858,0,0,1.100000023841858,-508.260986328125,-73.39600372314453)"></path><path d="M 1680.8762 460.8615 Q 1289.5509 558.1822 1610.1406 802.782" fill="none" stroke="#91c7ae" stroke-width="0.9090908893868948" paint-order="fill" stroke-opacity="0.5" stroke-dasharray="" stroke-linecap="butt" stroke-linejoin="miter" stroke-miterlimit="10" clip-path="none" transform="matrix(1.100000023841858,0,0,1.100000023841858,-508.260986328125,-73.39600372314453)"></path><path d="M 1680.8762 460.8615 Q 1283.0579 564.2894 1480.2819 924.927" fill="none" stroke="#91c7ae" stroke-width="0.9090908893868948" paint-order="fill" stroke-opacity="0.5" stroke-dasharray="" stroke-linecap="butt" stroke-linejoin="miter" stroke-miterlimit="10" clip-path="none" transform="matrix(1.100000023841858,0,0,1.100000023841858,-508.260986328125,-73.39600372314453)"></path><path d="M 1680.8762 460.8615 Q 1274.6747 567.3192 1312.6185 985.5214" fill="none" stroke="#91c7ae" stroke-width="0.9090908893868948" paint-order="fill" stroke-opacity="0.5" stroke-dasharray="" stroke-linecap="butt" stroke-linejoin="miter" stroke-miterlimit="10" clip-path="none" transform="matrix(1.100000023841858,0,0,1.100000023841858,-508.260986328125,-73.39600372314453)"></path><path d="M 1680.8762 460.8615 Q 1257.827 562.7433 975.6645 894.0059" fill="none" stroke="#91c7ae" stroke-width="0.9090908893868948" paint-order="fill" stroke-opacity="0.5" stroke-dasharray="" stroke-linecap="butt" stroke-linejoin="miter" stroke-miterlimit="10" clip-path="none" transform="matrix(1.100000023841858,0,0,1.100000023841858,-508.260986328125,-73.39600372314453)"></path><path d="M 1680.8762 460.8615 Q 1252.1283 555.889 861.6905 756.9196" fill="none" stroke="#91c7ae" stroke-width="0.9090908893868948" paint-order="fill" stroke-opacity="0.5" stroke-dasharray="" stroke-linecap="butt" stroke-linejoin="miter" stroke-miterlimit="10" clip-path="none" transform="matrix(1.100000023841858,0,0,1.100000023841858,-508.260986328125,-73.39600372314453)"></path><path d="M 1680.8762 460.8615 Q 1250.7053 538.4891 833.2307 408.9208" fill="none" stroke="#91c7ae" stroke-width="0.9090908893868948" paint-order="fill" stroke-opacity="0.5" stroke-dasharray="" stroke-linecap="butt" stroke-linejoin="miter" stroke-miterlimit="10" clip-path="none" transform="matrix(1.100000023841858,0,0,1.100000023841858,-508.260986328125,-73.39600372314453)"></path><path d="M 1680.8762 460.8615 Q 1253.5367 532.904 889.8594 297.218" fill="none" stroke="#91c7ae" stroke-width="0.9090908893868948" paint-order="fill" stroke-opacity="0.5" stroke-dasharray="" stroke-linecap="butt" stroke-linejoin="miter" stroke-miterlimit="10" clip-path="none" transform="matrix(1.100000023841858,0,0,1.100000023841858,-508.260986328125,-73.39600372314453)"></path><path d="M 1680.8762 460.8615 Q 1274.6747 523.767 1312.6185 114.4786" fill="none" stroke="#91c7ae" stroke-width="0.9090908893868948" paint-order="fill" stroke-opacity="0.5" stroke-dasharray="" stroke-linecap="butt" stroke-linejoin="miter" stroke-miterlimit="10" clip-path="none" transform="matrix(1.100000023841858,0,0,1.100000023841858,-508.260986328125,-73.39600372314453)"></path><path d="M 1680.8762 460.8615 Q 1289.5509 532.904 1610.1406 297.218" fill="none" stroke="#91c7ae" stroke-width="0.9090908893868948" paint-order="fill" stroke-opacity="0.5" stroke-dasharray="" stroke-linecap="butt" stroke-linejoin="miter" stroke-miterlimit="10" clip-path="none" transform="matrix(1.100000023841858,0,0,1.100000023841858,-508.260986328125,-73.39600372314453)"></path><path d="M 1 0 A 1 1 0 1 0 1 0.0001" fill="#c23531" fill-opacity="1" stroke="none" transform="matrix(26.499998092651367,0,0,26.499998092651367,1340.702880859375,629.6563720703125)" clip-path="none"></path><text alignment-baseline="middle" x="6" y="0" fill="#c23531" fill-opacity="1" stroke="none" transform="matrix(1,0,0,1,1340.702880859375,629.6563720703125)" clip-path="none" style="font: 12px &quot;Microsoft YaHei&quot;;"><tspan alignment-baseline="middle" text-anchor="start" x="6" y="0">ass Goal 1</tspan></text><path d="M 1 0 A 1 1 0 1 0 1 0.0001" fill="#c23531" fill-opacity="1" stroke="none" transform="matrix(26.499998092651367,0,0,26.499998092651367,1262.893798828125,809.6641845703125)" clip-path="none"></path><text alignment-baseline="middle" x="6" y="0" fill="#c23531" fill-opacity="1" stroke="none" transform="matrix(1,0,0,1,1262.893798828125,809.6641845703125)" clip-path="none" style="font: 12px &quot;Microsoft YaHei&quot;;"><tspan alignment-baseline="middle" text-anchor="start" x="6" y="0">aaa     Goal 2</tspan></text><path d="M 1 0 A 1 1 0 1 0 1 0.0001" fill="#c23531" fill-opacity="1" stroke="none" transform="matrix(26.499998092651367,0,0,26.499998092651367,1120.049072265625,944.0237426757812)" clip-path="none"></path><text alignment-baseline="middle" x="6" y="0" fill="#c23531" fill-opacity="1" stroke="none" transform="matrix(1,0,0,1,1120.049072265625,944.0237426757812)" clip-path="none" style="font: 12px &quot;Microsoft YaHei&quot;;"><tspan alignment-baseline="middle" text-anchor="start" x="6" y="0">aaa  Goal 3</tspan></text><path d="M 1 0 A 1 1 0 1 0 1 0.0001" fill="#d48265" fill-opacity="1" stroke="none" transform="matrix(26.499998092651367,0,0,26.499998092651367,935.6194458007812,1010.6776123046875)" clip-path="none"></path><text alignment-baseline="middle" x="6" y="0" fill="#d48265" fill-opacity="1" stroke="none" transform="matrix(1,0,0,1,935.6194458007812,1010.6776123046875)" clip-path="none" style="font: 12px &quot;Microsoft YaHei&quot;;"><tspan alignment-baseline="middle" text-anchor="start" x="6" y="0">aaa Goal 4</tspan></text><path d="M 1 0 A 1 1 0 1 0 1 0.0001" fill="#d48265" fill-opacity="1" stroke="none" transform="matrix(26.499998092651367,0,0,26.499998092651367,739.8818359375,998.6835327148438)" clip-path="none"></path><text alignment-baseline="middle" x="6" y="0" fill="#d48265" fill-opacity="1" stroke="none" transform="matrix(1,0,0,1,739.8818359375,998.6835327148438)" clip-path="none" style="font: 12px &quot;Microsoft YaHei&quot;;"><tspan alignment-baseline="middle" text-anchor="start" x="6" y="0">aaa Goal 5</tspan></text><path d="M 1 0 A 1 1 0 1 0 1 0.0001" fill="#2f4554" fill-opacity="1" stroke="none" transform="matrix(26.499998092651367,0,0,26.499998092651367,564.969970703125,910.0104370117188)" clip-path="none"></path><text alignment-baseline="middle" x="6" y="0" fill="#2f4554" fill-opacity="1" stroke="none" transform="matrix(1,0,0,1,564.969970703125,910.0104370117188)" clip-path="none" style="font: 12px &quot;Microsoft YaHei&quot;;"><tspan alignment-baseline="middle" text-anchor="start" x="6" y="0">aaa Goal 6</tspan></text><path d="M 1 0 A 1 1 0 1 0 1 0.0001" fill="#61a0a8" fill-opacity="1" stroke="none" transform="matrix(26.499998092651367,0,0,26.499998092651367,439.59857177734375,759.215576171875)" clip-path="none"></path><text alignment-baseline="middle" x="6" y="0" fill="#61a0a8" fill-opacity="1" stroke="none" transform="matrix(1,0,0,1,439.59857177734375,759.215576171875)" clip-path="none" style="font: 12px &quot;Microsoft YaHei&quot;;"><tspan alignment-baseline="middle" text-anchor="start" x="6" y="0">aaa Goal 8</tspan></text><path d="M 1 0 A 1 1 0 1 0 1 0.0001" fill="#61a0a8" fill-opacity="1" stroke="none" transform="matrix(26.499998092651367,0,0,26.499998092651367,384.3494873046875,571.0545043945312)" clip-path="none"></path><text alignment-baseline="middle" x="6" y="0" fill="#61a0a8" fill-opacity="1" stroke="none" transform="matrix(1,0,0,1,384.3494873046875,571.0545043945312)" clip-path="none" style="font: 12px &quot;Microsoft YaHei&quot;;"><tspan alignment-baseline="middle" text-anchor="start" x="6" y="0">aaa Goal 9</tspan></text><path d="M 1 0 A 1 1 0 1 0 1 0.0001" fill="#d48265" fill-opacity="1" stroke="none" transform="matrix(26.499998092651367,0,0,26.499998092651367,408.2927551269531,376.41693115234375)" clip-path="none"></path><text alignment-baseline="middle" x="6" y="0" fill="#d48265" fill-opacity="1" stroke="none" transform="matrix(1,0,0,1,408.2927551269531,376.41693115234375)" clip-path="none" style="font: 12px &quot;Microsoft YaHei&quot;;"><tspan alignment-baseline="middle" text-anchor="start" x="6" y="0">aaa Goal 10</tspan></text><path d="M 1 0 A 1 1 0 1 0 1 0.0001" fill="#91c7ae" fill-opacity="1" stroke="none" transform="matrix(26.499998092651367,0,0,26.499998092651367,470.5843505859375,253.54385375976562)" clip-path="none"></path><text alignment-baseline="middle" x="6" y="0" fill="#91c7ae" fill-opacity="1" stroke="none" transform="matrix(1,0,0,1,470.5843505859375,253.54385375976562)" clip-path="none" style="font: 12px &quot;Microsoft YaHei&quot;;"><tspan alignment-baseline="middle" text-anchor="start" x="6" y="0">aaa Goal 11</tspan></text><path d="M 1 0 A 1 1 0 1 0 1 0.0001" fill="#61a0a8" fill-opacity="1" stroke="none" transform="matrix(26.499998092651367,0,0,26.499998092651367,564.969970703125,153.1975555419922)" clip-path="none"></path><text alignment-baseline="middle" x="6" y="0" fill="#61a0a8" fill-opacity="1" stroke="none" transform="matrix(1,0,0,1,564.969970703125,153.1975555419922)" clip-path="none" style="font: 12px &quot;Microsoft YaHei&quot;;"><tspan alignment-baseline="middle" text-anchor="start" x="6" y="0">aaa Goal 12</tspan></text><path d="M 1 0 A 1 1 0 1 0 1 0.0001" fill="#2f4554" fill-opacity="1" stroke="none" transform="matrix(26.499998092651367,0,0,26.499998092651367,739.8818359375,64.5245132446289)" clip-path="none"></path><text alignment-baseline="middle" x="6" y="0" fill="#2f4554" fill-opacity="1" stroke="none" transform="matrix(1,0,0,1,739.8818359375,64.5245132446289)" clip-path="none" style="font: 12px &quot;Microsoft YaHei&quot;;"><tspan alignment-baseline="middle" text-anchor="start" x="6" y="0">aaa Goal 13</tspan></text><path d="M 1 0 A 1 1 0 1 0 1 0.0001" fill="#61a0a8" fill-opacity="1" stroke="none" transform="matrix(26.499998092651367,0,0,26.499998092651367,935.6194458007812,52.530426025390625)" clip-path="none"></path><text alignment-baseline="middle" x="6" y="0" fill="#61a0a8" fill-opacity="1" stroke="none" transform="matrix(1,0,0,1,935.6194458007812,52.530426025390625)" clip-path="none" style="font: 12px &quot;Microsoft YaHei&quot;;"><tspan alignment-baseline="middle" text-anchor="start" x="6" y="0">aaa Goal 14</tspan></text><path d="M 1 0 A 1 1 0 1 0 1 0.0001" fill="#2f4554" fill-opacity="1" stroke="none" transform="matrix(26.499998092651367,0,0,26.499998092651367,1120.049072265625,119.18431854248047)" clip-path="none"></path><text alignment-baseline="middle" x="6" y="0" fill="#2f4554" fill-opacity="1" stroke="none" transform="matrix(1,0,0,1,1120.049072265625,119.18431854248047)" clip-path="none" style="font: 12px &quot;Microsoft YaHei&quot;;"><tspan alignment-baseline="middle" text-anchor="start" x="6" y="0">aaa Goal 15</tspan></text><path d="M 1 0 A 1 1 0 1 0 1 0.0001" fill="#d48265" fill-opacity="1" stroke="none" transform="matrix(26.499998092651367,0,0,26.499998092651367,1262.893798828125,253.54385375976562)" clip-path="none"></path><text alignment-baseline="middle" x="6" y="0" fill="#d48265" fill-opacity="1" stroke="none" transform="matrix(1,0,0,1,1262.893798828125,253.54385375976562)" clip-path="none" style="font: 12px &quot;Microsoft YaHei&quot;;"><tspan alignment-baseline="middle" text-anchor="start" x="6" y="0">aaa Goal 16</tspan></text><path d="M 1 0 A 1 1 0 1 0 1 0.0001" fill="#91c7ae" fill-opacity="1" stroke="none" transform="matrix(26.499998092651367,0,0,26.499998092651367,1340.702880859375,433.5516357421875)" clip-path="none"></path><text alignment-baseline="middle" x="6" y="0" fill="#91c7ae" fill-opacity="1" stroke="none" transform="matrix(1,0,0,1,1340.702880859375,433.5516357421875)" clip-path="none" style="font: 12px &quot;Microsoft YaHei&quot;;"><tspan alignment-baseline="middle" text-anchor="start" x="6" y="0">aaa Goal 17</tspan></text><path d="M -5 -5 L 423.7852 -5 L 423.7852 19 L -5 19 L -5 -5 Z" fill="rgba(0,0,0,0)" fill-opacity="1" stroke="#ccc" stroke-width="0" paint-order="fill" stroke-opacity="1" stroke-dasharray="" stroke-linecap="butt" stroke-linejoin="miter" stroke-miterlimit="10" transform="matrix(1,0,0,1,1040.607421875,5)" clip-path="none"></path><path d="M 3.5 0 L 21.5 0 A 3.5 3.5 0 0 1 25 3.5 L 25 10.5 A 3.5 3.5 0 0 1 21.5 14 L 3.5 14 A 3.5 3.5 0 0 1 0 10.5 L 0 3.5 A 3.5 3.5 0 0 1 3.5 0 Z" fill="#c23531" fill-opacity="1" stroke="none" transform="matrix(1,0,0,1,1040.607421875,5)" clip-path="none"></path><text alignment-baseline="middle" x="30" y="7" fill="#333" fill-opacity="1" stroke="none" transform="matrix(1,0,0,1,1040.607421875,5)" clip-path="none" style="font: 12px &quot;Microsoft YaHei&quot;;"><tspan alignment-baseline="middle" text-anchor="start" x="30" y="7">People</tspan></text><path d="M 3.5 0 L 21.5 0 A 3.5 3.5 0 0 1 25 3.5 L 25 10.5 A 3.5 3.5 0 0 1 21.5 14 L 3.5 14 A 3.5 3.5 0 0 1 0 10.5 L 0 3.5 A 3.5 3.5 0 0 1 3.5 0 Z" fill="#2f4554" fill-opacity="1" stroke="none" transform="matrix(1,0,0,1,1119.572265625,5)" clip-path="none"></path><text alignment-baseline="middle" x="30" y="7" fill="#333" fill-opacity="1" stroke="none" transform="matrix(1,0,0,1,1119.572265625,5)" clip-path="none" style="font: 12px &quot;Microsoft YaHei&quot;;"><tspan alignment-baseline="middle" text-anchor="start" x="30" y="7">Planet</tspan></text><path d="M 3.5 0 L 21.5 0 A 3.5 3.5 0 0 1 25 3.5 L 25 10.5 A 3.5 3.5 0 0 1 21.5 14 L 3.5 14 A 3.5 3.5 0 0 1 0 10.5 L 0 3.5 A 3.5 3.5 0 0 1 3.5 0 Z" fill="#61a0a8" fill-opacity="1" stroke="none" transform="matrix(1,0,0,1,1195.4140625,5)" clip-path="none"></path><text alignment-baseline="middle" x="30" y="7" fill="#333" fill-opacity="1" stroke="none" transform="matrix(1,0,0,1,1195.4140625,5)" clip-path="none" style="font: 12px &quot;Microsoft YaHei&quot;;"><tspan alignment-baseline="middle" text-anchor="start" x="30" y="7">Prosperty</tspan></text><path d="M 3.5 0 L 21.5 0 A 3.5 3.5 0 0 1 25 3.5 L 25 10.5 A 3.5 3.5 0 0 1 21.5 14 L 3.5 14 A 3.5 3.5 0 0 1 0 10.5 L 0 3.5 A 3.5 3.5 0 0 1 3.5 0 Z" fill="#d48265" fill-opacity="1" stroke="none" transform="matrix(1,0,0,1,1290.603515625,5)" clip-path="none"></path><text alignment-baseline="middle" x="30" y="7" fill="#333" fill-opacity="1" stroke="none" transform="matrix(1,0,0,1,1290.603515625,5)" clip-path="none" style="font: 12px &quot;Microsoft YaHei&quot;;"><tspan alignment-baseline="middle" text-anchor="start" x="30" y="7">Peace</tspan></text><path d="M 3.5 0 L 21.5 0 A 3.5 3.5 0 0 1 25 3.5 L 25 10.5 A 3.5 3.5 0 0 1 21.5 14 L 3.5 14 A 3.5 3.5 0 0 1 0 10.5 L 0 3.5 A 3.5 3.5 0 0 1 3.5 0 Z" fill="#91c7ae" fill-opacity="1" stroke="none" transform="matrix(1,0,0,1,1363.732421875,5)" clip-path="none"></path><text alignment-baseline="middle" x="30" y="7" fill="#333" fill-opacity="1" stroke="none" transform="matrix(1,0,0,1,1363.732421875,5)" clip-path="none" style="font: 12px &quot;Microsoft YaHei&quot;;"><tspan alignment-baseline="middle" text-anchor="start" x="30" y="7">Partnership</tspan></text><path d="M -137 -23 L 5 -23 L 5 33 L -137 33 L -137 -23 Z" fill="rgba(0,0,0,0)" fill-opacity="1" stroke="#ccc" stroke-width="0" paint-order="fill" stroke-opacity="1" stroke-dasharray="" stroke-linecap="butt" stroke-linejoin="miter" stroke-miterlimit="10" transform="matrix(1,0,0,1,2495,1095)" clip-path="none"></path><text alignment-baseline="after-edge" x="0" y="0" fill="#333" fill-opacity="1" stroke="none" transform="matrix(1,0,0,1,2495,1095)" clip-path="none" style="font: bolder 18px &quot;Microsoft YaHei&quot;;"><tspan alignment-baseline="after-edge" text-anchor="end" x="0" y="0">Les Miserables</tspan></text><text alignment-baseline="after-edge" x="0" y="28" fill="#aaa" fill-opacity="1" stroke="none" transform="matrix(1,0,0,1,2495,1095)" clip-path="none" style="font: 12px &quot;Microsoft YaHei&quot;;"><tspan alignment-baseline="after-edge" text-anchor="end" x="0" y="28">Default layout</tspan></text></svg>